<?xml version="1.0" standalone="no"?>
<!DOCTYPE svg PUBLIC "-//W3C//DTD SVG 20010904//EN"
 "http://www.w3.org/TR/2001/REC-SVG-20010904/DTD/svg10.dtd">
<svg version="1.0" xmlns="http://www.w3.org/2000/svg"
 width="512.000000pt" height="512.000000pt" viewBox="0 0 512.000000 512.000000"
 preserveAspectRatio="xMidYMid meet">
<metadata>
Created by potrace 1.14, written by Peter Selinger 2001-2017
</metadata>
<g transform="translate(0.000000,512.000000) scale(0.100000,-0.100000)"
fill="#000000" stroke="none">
<path d="M2370 5113 c-19 -2 -63 -10 -96 -19 -89 -23 -113 -51 -162 -186 -22
-62 -84 -234 -137 -383 -53 -148 -110 -304 -125 -345 -16 -41 -69 -187 -119
-325 -90 -251 -241 -670 -373 -1035 -38 -107 -92 -258 -120 -335 -27 -77 -56
-154 -64 -172 -8 -17 -14 -36 -14 -42 0 -6 -8 -26 -17 -46 l-17 -36 -44 163
c-23 90 -51 195 -61 233 -11 39 -26 97 -35 130 -9 33 -39 146 -67 250 -27 105
-54 201 -59 215 -5 14 -12 36 -14 50 -27 138 -57 179 -134 181 -26 1 -85 2
-132 3 -186 4 -236 -19 -226 -104 3 -25 55 -218 116 -430 61 -212 118 -407
125 -435 8 -27 50 -176 95 -330 44 -154 82 -288 85 -297 2 -10 25 -89 50 -177
39 -135 45 -165 36 -193 -11 -36 -38 -114 -48 -138 -3 -8 -7 -17 -8 -20 -4
-19 -29 -87 -34 -95 -3 -5 -6 -14 -7 -20 -1 -5 -16 -48 -34 -95 -17 -47 -42
-114 -55 -150 -40 -116 -115 -324 -130 -360 -45 -109 -127 -361 -132 -402 -6
-52 8 -97 35 -115 35 -21 138 -35 262 -35 242 0 325 22 364 97 21 40 96 249
98 273 2 20 16 0 22 -31 3 -16 11 -50 19 -75 8 -26 25 -81 37 -122 26 -88 32
-96 79 -116 50 -21 90 -26 226 -28 192 -3 281 18 309 72 8 15 35 110 61 212
25 102 62 246 81 320 20 74 37 142 39 150 2 8 13 53 25 100 12 47 23 92 25
100 2 8 26 101 53 205 l49 190 350 3 351 2 12 -47 c7 -27 14 -52 15 -58 3 -12
70 -249 126 -445 21 -74 45 -160 53 -190 35 -135 118 -431 138 -491 18 -57 26
-70 58 -88 45 -25 118 -35 260 -35 242 1 280 22 324 181 60 214 58 207 67 190
6 -9 30 -73 54 -142 25 -69 52 -137 61 -151 40 -60 118 -76 370 -76 170 0 224
6 271 29 54 28 63 69 38 168 -14 52 -99 300 -125 360 -4 11 -13 34 -18 50 -6
17 -29 80 -51 140 -22 61 -72 200 -111 310 -39 110 -75 209 -80 220 -5 11 -21
54 -35 95 -15 41 -33 94 -41 118 -8 23 -12 47 -9 52 3 6 8 18 10 27 2 10 17
65 34 123 16 58 55 191 85 295 30 105 123 429 207 720 173 601 179 634 121
668 -27 16 -53 19 -160 20 -144 1 -213 -13 -231 -46 -6 -12 -31 -98 -56 -192
-68 -258 -83 -312 -109 -410 -13 -49 -50 -189 -81 -310 -31 -121 -60 -224 -63
-229 -3 -5 -14 15 -24 45 -11 30 -28 77 -38 104 -10 28 -48 133 -85 235 -36
102 -75 208 -85 235 -10 28 -32 88 -48 135 -17 47 -46 128 -65 180 -20 52 -72
199 -117 325 -45 127 -86 239 -91 250 -5 11 -37 101 -73 200 -129 361 -237
661 -256 710 -10 28 -42 115 -71 195 -28 80 -58 157 -66 173 -19 38 -79 75
-143 88 -50 10 -415 19 -500 12z m198 -738 c6 -16 59 -167 118 -335 58 -168
131 -375 161 -460 30 -85 63 -180 73 -210 10 -30 45 -131 78 -225 107 -301
432 -1234 432 -1237 0 -2 -54 -4 -120 -4 l-121 1 -10 40 c-6 22 -23 85 -38
140 -16 55 -38 138 -51 185 -12 47 -26 96 -30 110 -5 14 -27 95 -51 180 -42
156 -101 370 -140 510 -12 41 -22 82 -24 90 -11 54 -48 170 -62 197 -12 23
-28 35 -59 43 -71 20 -310 16 -367 -6 -31 -12 -59 -75 -82 -184 -2 -8 -20 -78
-40 -155 -20 -77 -38 -147 -40 -155 -2 -8 -42 -168 -90 -355 -127 -500 -155
-608 -160 -625 -7 -23 -261 -23 -259 0 2 13 165 490 331 965 25 72 88 254 140
405 52 151 119 345 148 430 29 85 88 254 130 375 42 121 84 244 92 273 17 55
23 56 41 7z m50 -2000 c45 -159 92 -331 105 -380 l24 -91 -204 0 -203 0 4 26
c2 14 40 169 85 345 106 414 102 398 105 394 2 -2 40 -134 84 -294z m-818
-1012 c1 -15 -215 -861 -218 -858 -2 2 -8 18 -12 37 -5 18 -41 152 -80 297
l-71 263 27 82 c15 44 35 105 46 134 l19 52 145 0 c79 0 144 -3 144 -7z m1864
-150 c31 -87 56 -164 56 -171 0 -8 -25 -109 -56 -225 -73 -278 -86 -324 -89
-312 -1 6 -8 28 -14 50 -6 22 -24 90 -41 150 -17 61 -35 126 -40 145 -69 242
-138 505 -134 512 3 4 63 8 133 8 l129 0 56 -157z"/>
</g>
</svg>
